<svg width="192" height="192" fill="none" viewBox="0 0 192 192" xmlns="http://www.w3.org/2000/svg">
  <path d="m69.033 192c-2.3986 0-4.3525-1.954-4.3525-4.352v-53.942c0-3.517-2.8635-6.373-6.3737-6.373h-53.95434c-2.39857 0-4.35246-1.954-4.35246-4.352v-53.9418c0-2.3984 1.95389-4.352 4.35246-4.352h53.94754c3.517 0 6.3738-2.8632 6.3738-6.3731v-53.9621c0-2.39832 1.9538-4.352 4.3524-4.352h53.9478c2.398 0 4.352 1.95368 4.352 4.352v53.9419c0 3.5166 2.864 6.373 6.374 6.373h53.948c2.398 0 4.352 1.9537 4.352 4.3521v53.942c0 2.398-1.954 4.352-4.352 4.352h-53.948c-3.517 0-6.374 2.863-6.374 6.373v53.942c0 2.398-1.954 4.352-4.352 4.352h-53.9478l0.0068 0.02z" fill="#fff" fill-opacity=".1"/>
  <path d="m69.0262 190.48h-0.333c-1.4114-0.169-2.5127-1.377-2.5127-2.832v-53.942c0-4.346-3.5362-7.873-7.8737-7.873h-53.95434c-1.57029 0-2.85246-1.282-2.85246-2.852v-53.9418c0-1.5698 1.28217-2.852 2.85246-2.852h53.94754c4.3463 0 7.8738-3.5357 7.8738-7.8731v-53.9621c0-1.56974 1.2821-2.852 2.8524-2.852h53.9478c1.57 0 2.852 1.28226 2.852 2.852v53.9419c0 4.3462 3.536 7.873 7.874 7.873h53.948c1.57 0 2.852 1.2823 2.852 2.8521v53.942c0 1.57-1.282 2.852-2.852 2.852h-53.948c-4.346 0-7.874 3.535-7.874 7.873v53.942c0 1.57-1.282 2.852-2.852 2.852h-53.9478z" stroke="#fff" stroke-opacity=".3" stroke-width="3"/>
  <circle cx="96" cy="96" r="20" fill="#fff" fill-opacity=".1"/>
</svg>
