<svg width="96" height="96" fill="none" viewBox="0 0 96 96" xmlns="http://www.w3.org/2000/svg">
  <mask id="path-1-inside-1_162_1238" fill="#fff">
    <path d="m48.011 0.0243377c-4.393 3.2247423-9.1267 6.5468323-14.8095 9.7594123-8.8833 5.01355-17.2798 8.57905-24.60541 11.14665-0.68145 6.8754 1.30207 32.5517 10.65991 48.3833 9.3578 15.8317 22.415 23.2547 28.755 26.6863v-0.0243c6.3278-3.4317 19.3119-10.7451 28.7306-26.6863s11.3414-41.5079 10.6599-48.3833c-7.3256-2.5677-15.7221-6.1331-24.6054-11.14669-5.6828-3.21257-10.4165-6.53467-14.8095-9.75941"/>
  </mask>
  <path d="m48.011 0.0243377c-4.393 3.2247423-9.1267 6.5468323-14.8095 9.7594123-8.8833 5.01355-17.2798 8.57905-24.60541 11.14665-0.68145 6.8754 1.30207 32.5517 10.65991 48.3833 9.3578 15.8317 22.415 23.2547 28.755 26.6863v-0.0243c6.3278-3.4317 19.3119-10.7451 28.7306-26.6863s11.3414-41.5079 10.6599-48.3833c-7.3256-2.5677-15.7221-6.1331-24.6054-11.14669-5.6828-3.21257-10.4165-6.53467-14.8095-9.75941" fill="#33f" fill-opacity=".2"/>
  <path d="m33.2015 9.78375 1.4745 2.61265 0.0018-0.0011-1.4763-2.61155zm-24.60541 11.14665-0.99231-2.8311-1.80447 0.6324-0.18859 1.9028 2.98537 0.2959zm39.41491 75.0696-1.4281 2.6383 4.4281 2.3967v-5.035h-3zm0-0.0243-1.4302-2.6372-1.5698 0.8513v1.7859h3zm39.3905-75.0696 2.9854-0.2959-0.1886-1.9028-1.8045-0.6325-0.9923 2.8312zm-24.6054-11.14669-1.4763 2.61159 0.0018 1e-3 1.4745-2.61259zm-16.5604-12.15343c-4.3558 3.197496-8.9794 6.43934-14.5106 9.56619l2.9527 5.22313c5.8345-3.29827 10.6784-6.70061 15.1084-9.9526l-3.5505-4.83672zm-14.5087 9.56515c-8.7087 4.91497-16.9405 8.41057-24.12322 10.92817l1.98462 5.6622c7.4685-2.6177 16.0297-6.253 25.0876-11.3651l-2.949-5.22527zm-26.11628 13.46337c-0.37781 3.8118-0.00954 12.2447 1.59337 21.6338 1.60597 9.4071 4.51991 20.1985 9.46931 28.5719l5.1652-3.053c-4.4084-7.4582-7.1652-17.4208-8.7201-26.5286-1.5579-9.1257-1.8407-16.9687-1.537-20.0323l-5.97078-0.5918zm11.06268 50.2057c9.7825 16.5502 23.4354 24.2939 29.9095 27.7981l2.8561-5.2766c-6.2058-3.359-18.6672-10.4613-27.6004-25.5745l-5.1652 3.053zm34.3376 25.1598v-0.0243h-6v0.0243h6zm-1.5699 2.6128c6.4569-3.5016 20.0391-11.136 29.8834-27.7974l-5.1658-3.0521c-8.9931 15.221-21.3792 22.2136-27.5779 25.5752l2.8603 5.2743zm29.8834-27.7974c4.979-8.427 7.8932-19.2173 9.4921-28.6141 1.5959-9.3792 1.9478-17.7827 1.5703-21.5911l-5.9708 0.5918c0.304 3.0669 0.0353 10.8845-1.5145 19.9928-1.5468 9.0908-4.3032 19.0544-8.7429 26.5685l5.1658 3.0521zm9.0693-52.7405c-7.1827-2.5175-15.4146-6.0131-24.1232-10.92811l-2.949 5.22521c9.0579 5.1122 17.6191 8.7475 25.0876 11.3652l1.9846-5.6623zm-24.1213-10.92707c-5.5312-3.12685-10.1548-6.368692-14.5106-9.56619l-3.5505 4.83672c4.43 3.25199 9.2739 6.65433 15.1084 9.95264l2.9527-5.22317z" fill="#fff" fill-opacity=".8" mask="url(#path-1-inside-1_162_1238)"/>
</svg>
