<svg width="154" height="154" fill="none" viewBox="0 0 154 154" xmlns="http://www.w3.org/2000/svg">
  <circle cx="77" cy="77" r="68" fill="#fff" fill-opacity=".05"/>
  <g clip-path="url(#clip0_162_1132)" fill="#fff">
    <path d="M76.9995 37L61.4111 22H92.588L76.9995 37Z"/>
    <path d="m36.9995 77-15 15.5885v-31.177l15 15.5885z"/>
    <path d="M117 77L132 61.4115V92.5885L117 77Z"/>
    <path d="m76.9995 117 15.5885 15h-31.1769l15.5884-15z"/>
  </g>
  <g clip-path="url(#clip1_162_1132)" fill="#fff" opacity=".1">
    <path d="m83.9453 37.6077-12.7469-17.479 30.7036 5.4138-17.9567 12.0652z"/>
    <path d="m37.6072 70.0542-17.479 12.7469 5.4138-30.7033 12.0652 17.9564z"/>
    <path d="m116.392 83.9461 17.479-12.7469-5.414 30.7028-12.065-17.9559z"/>
    <path d="m70.0532 116.393 12.7469 17.479-30.7033-5.414 17.9564-12.065z"/>
  </g>
  <g clip-path="url(#clip2_162_1132)" fill="#fff" opacity=".05">
    <path d="m90.6807 39.4122-9.518-19.4269 29.2963 10.6631-19.7783 8.7638z"/>
    <path d="m39.4125 63.319-19.427 9.5181 10.6632-29.2968 8.7638 19.7787z"/>
    <path d="m114.588 90.6807 19.426-9.518-10.663 29.2963-8.763-19.7783z"/>
    <path d="m63.3193 114.588 9.518 19.426-29.2967-10.663 19.7787-8.763z"/>
  </g>
  <defs>
    <clipPath id="clip0_162_1132">
      <rect x="16.9995" y="17" width="120" height="120"/>
    </clipPath>
    <clipPath id="clip1_162_1132">
      <rect transform="rotate(10 28.3301 7.49268)" x="28.3301" y="7.49268" width="120" height="120"/>
    </clipPath>
    <clipPath id="clip2_162_1132">
      <rect transform="rotate(20 41.1396 .097168)" x="41.1396" y=".097168" width="120" height="120"/>
    </clipPath>
  </defs>
</svg>
